HIERARCHY
ROOT Hips
{
	OFFSET	0.000000	0.000000	0.000000
	CHANNELS 6 Xposition Yposition Zposition Zrotation Xrotation Yrotation
	JOINT LeftHip
	{
		OFFSET	12.830505	-7.049846	-1.643436
		CHANNELS 3 Zrotation Xrotation Yrotation
		JOINT LeftKnee
		{
			OFFSET	0.620834	-39.957502	-1.919341
			CHANNELS 3 Zrotation Xrotation Yrotation
			JOINT LeftAnkle
			{
				OFFSET	-0.413890	-44.704761	-3.870325
				CHANNELS 3 Zrotation Xrotation Yrotation
				JOINT LeftAnkleEnd
				{
					OFFSET	0.164738	-8.918194	-6.555130
					CHANNELS 3 Zrotation Xrotation Yrotation
					End Site
					{
						OFFSET	-0.604053	0.000000	21.044330
					}
				}
			}
		}
	}
	JOINT RightHip
	{
		OFFSET	-12.830505	-7.049846	-1.643436
		CHANNELS 3 Zrotation Xrotation Yrotation
		JOINT RightKnee
		{
			OFFSET	-0.620834	-39.957502	-1.919341
			CHANNELS 3 Zrotation Xrotation Yrotation
			JOINT RightAnkle
			{
				OFFSET	0.413890	-44.704761	-3.870325
				CHANNELS 3 Zrotation Xrotation Yrotation
				JOINT RightAnkleEnd
				{
					OFFSET	-0.164738	-8.918194	-6.555130
					CHANNELS 3 Zrotation Xrotation Yrotation
					End Site
					{
						OFFSET	0.604053	0.000000	21.044330
					}
				}
			}
		}
	}
	JOINT Chest
	{
		OFFSET	0.000000	12.498171	1.820647
		CHANNELS 3 Zrotation Xrotation Yrotation
		JOINT Chest1
		{
			OFFSET	0.000000	7.620000	0.000000
			CHANNELS 3 Zrotation Xrotation Yrotation
			JOINT LeftCollar
			{
				OFFSET	9.167800	29.136339	-5.551221
				CHANNELS 3 Zrotation Xrotation Yrotation
				JOINT LeftShoulder
				{
					OFFSET	12.133453	-3.880866	1.461963
					CHANNELS 3 Zrotation Xrotation Yrotation
					JOINT LeftElbow
					{
						OFFSET	2.507115	-31.664910	-1.069404
						CHANNELS 3 Zrotation Xrotation Yrotation
						JOINT LeftWrist
						{
							OFFSET	4.116172	-24.512624	5.009439
							CHANNELS 3 Zrotation Xrotation Yrotation
							End Site
							{
								OFFSET	-0.213136	-10.931856	2.182134
							}
						}
					}
				}
			}
			JOINT RightCollar
			{
				OFFSET	-9.167800	29.136339	-5.551221
				CHANNELS 3 Zrotation Xrotation Yrotation
				JOINT RightShoulder
				{
					OFFSET	-12.133453	-3.880866	1.461963
					CHANNELS 3 Zrotation Xrotation Yrotation
					JOINT RightElbow
					{
						OFFSET	-2.507115	-31.664910	-1.069404
						CHANNELS 3 Zrotation Xrotation Yrotation
						JOINT RightWrist
						{
							OFFSET	-4.116172	-24.512624	5.009439
							CHANNELS 3 Zrotation Xrotation Yrotation
							End Site
							{
								OFFSET	0.213136	-10.931856	2.182134
							}
						}
					}
				}
			}
			JOINT Neck
			{
				OFFSET	0.000000	32.926275	-3.635654
				CHANNELS 3 Zrotation Xrotation Yrotation
				JOINT Head
				{
					OFFSET	0.000000	12.481178	4.646143
					CHANNELS 3 Zrotation Xrotation Yrotation
					End Site
					{
						OFFSET	0.000000	17.715205	-2.222063
					}
				}
			}
		}
	}
}
MOTION
Frames:     14
Frame Time: 0.016667
0.000000	99.955486	0.000000	-3.337100	7.963821	46.628822	11.649037	-28.180851	19.828424	4.913536	28.731201	-3.159025	-10.807503	-4.551303	-7.261217	0.	0.	0.	-19.866564	-26.167040	-18.791750	-0.324012	28.107698	0.679073	7.796295	-4.136197	-6.825208	0.	0.	0.	-3.505656	-7.891456	-46.638336	-27.545534	19.962168	57.741150	17.175297	-4.917735	4.978980	-35.722157	-46.691219	-35.721481	-105.612541	-35.011890	-76.582100	-1.772420	-3.999145	-0.142394	-11.547516	-3.715723	0.634847	-42.784370	-16.288269	-49.865032	-24.153980	-120.536301	-40.077503	-11.975883	1.500314	11.560805	-4.209752	-0.468864	-18.260960	19.531145	-9.641877	-14.392660	
0.470935	98.701803	-3.437288	-3.593562	5.929342	46.504715	11.649037	-28.180851	19.828424	4.927560	28.745111	-3.178909	-10.818197	-4.568077	-7.251010	0.	0.	0.	-19.866564	-26.167040	-18.791750	-0.335078	28.122692	0.689816	7.805627	-4.151916	-6.828640	0.	0.	0.	-3.505656	-7.891456	-46.638336	-27.545534	19.962168	57.741150	17.175297	-4.917735	4.978980	-35.722157	-46.691219	-35.721481	-105.612541	-35.011890	-76.582100	-1.772420	-3.999145	-0.142394	-11.547516	-3.715723	0.634847	-42.778255	-16.280411	-49.863373	-24.200066	-120.511589	-40.118359	-11.975456	1.457483	11.552946	-4.209752	-0.468864	-18.260960	19.535343	-9.645474	-14.396630	
0.477146	98.700098	-3.434136	-3.593562	5.929342	46.504715	11.649037	-28.180851	19.828424	4.940700	28.757671	-3.193965	-10.828512	-4.582664	-7.244889	0.	0.	0.	-19.866564	-26.167040	-18.791750	-0.340653	28.130251	0.695219	7.810328	-4.159841	-6.830360	0.	0.	0.	-3.505656	-7.891456	-46.638336	-27.545534	19.962168	57.741150	17.175297	-4.917735	4.978980	-35.722157	-46.691219	-35.721481	-105.612541	-35.011890	-76.582100	-1.772420	-3.999145	-0.142394	-11.547516	-3.715723	0.634847	-42.771671	-16.271952	-49.861599	-24.203806	-120.513992	-40.122227	-11.976013	1.447874	11.551618	-4.209752	-0.468864	-18.260960	19.537346	-9.647189	-14.398520	
0.501797	98.693335	-3.421647	-3.593562	5.929342	46.504715	11.649037	-28.180851	19.828424	4.946639	28.786160	-3.193434	-10.832827	-4.610249	-7.253647	0.	0.	0.	-19.866564	-26.167040	-18.791750	-0.362795	28.160229	0.716725	7.828980	-4.191281	-6.837224	0.	0.	0.	-3.505656	-7.891456	-46.638336	-27.545534	19.962168	57.741150	17.175297	-4.917735	4.978980	-35.722157	-46.691219	-35.721481	-105.612541	-35.011890	-76.582100	-1.773161	-3.997511	-0.132335	-11.547516	-3.715723	0.634847	-42.754387	-16.249731	-49.856934	-24.205303	-120.524643	-40.124775	-11.975873	1.431454	11.549744	-4.209752	-0.468864	-18.260960	19.552843	-9.622749	-14.400974	
0.513573	98.690089	-3.415683	-3.593562	5.929342	46.504715	11.649037	-28.180851	19.828424	4.947620	28.808243	-3.191274	-10.832999	-4.631457	-7.260406	0.	0.	0.	-19.866564	-26.167040	-18.791750	-0.373384	28.174543	0.727003	7.837893	-4.206299	-6.840498	0.	0.	0.	-3.505656	-7.891456	-46.638336	-27.545534	19.962168	57.741150	17.175297	-4.917735	4.978980	-35.722157	-46.691219	-35.721481	-105.612541	-35.011890	-76.582100	-1.771075	-3.995257	-0.113672	-11.547516	-3.715723	0.634847	-42.742603	-16.234543	-49.853745	-24.214617	-120.536751	-40.132957	-11.968651	1.427029	11.554185	-4.207104	-0.457228	-18.257532	19.565042	-9.617769	-14.401963	
0.525423	98.686824	-3.409678	-3.593562	5.929342	46.504715	11.649077	-28.179909	19.834705	4.951658	28.830765	-3.195924	-10.833134	-4.654436	-7.267745	0.	0.	0.	-19.866564	-26.167040	-18.791750	-0.384035	28.188959	0.737341	7.846856	-4.221423	-6.843783	0.	0.	0.	-3.505656	-7.891456	-46.638336	-27.545534	19.962168	57.741150	17.175297	-4.917735	4.978980	-35.722157	-46.691219	-35.721481	-105.612541	-35.011890	-76.582100	-1.771075	-3.995257	-0.113672	-11.547516	-3.715723	0.634847	-42.725235	-16.212147	-49.849049	-24.212639	-120.547585	-40.122410	-11.947427	1.419270	11.551446	-4.201629	-0.433196	-18.250458	19.567640	-9.643243	-14.400352	
0.525423	98.686824	-3.409678	-3.593562	5.929342	46.504715	11.649077	-28.179909	19.834705	4.951658	28.830765	-3.195924	-10.833134	-4.654436	-7.267745	0.	0.	0.	-19.866564	-26.167040	-18.791750	-0.384035	28.188959	0.737341	7.846856	-4.221423	-6.843783	0.	0.	0.	-3.505656	-7.891456	-46.638336	-27.545534	19.962168	57.741150	17.175297	-4.917735	4.978980	-35.722157	-46.691219	-35.721481	-105.612541	-35.011890	-76.582100	-1.764727	-3.994952	-0.102031	-11.547516	-3.715723	0.634847	-42.725235	-16.212147	-49.849049	-24.212639	-120.547585	-40.122410	-11.947427	1.419270	11.551446	-4.201629	-0.433196	-18.250458	19.578398	-9.626685	-14.402737	
0.545165	98.681272	-3.401900	-3.593562	5.929342	46.504715	11.649077	-28.179909	19.834705	4.954914	28.868769	-3.192977	-10.834810	-4.691008	-7.279384	0.	0.	0.	-19.870092	-26.166483	-18.793253	-0.397071	28.211393	0.753056	7.860512	-4.244442	-6.848796	0.	0.	0.	-3.505656	-7.891456	-46.638336	-27.545534	19.962168	57.741150	17.175297	-4.917735	4.978980	-35.701553	-46.681915	-35.704018	-105.632652	-35.025513	-76.602921	-1.762713	-3.986986	-0.068341	-11.547516	-3.715723	0.634847	-42.698071	-16.177105	-49.841709	-24.202188	-120.568398	-40.098934	-11.911723	1.416185	11.545305	-4.189790	-0.381147	-18.235134	19.598825	-9.658386	-14.401640	
0.564758	98.675390	-3.401619	-3.593562	5.929342	46.504715	11.649129	-28.178404	19.844723	4.963523	28.892712	-3.202866	-10.837280	-4.716290	-7.287460	0.	0.	0.	-19.885458	-26.164045	-18.799749	-0.394088	28.228380	0.763446	7.869752	-4.260031	-6.852186	0.	0.	0.	-3.505656	-7.891456	-46.638336	-27.545534	19.962168	57.741150	17.175297	-4.917735	4.978980	-35.689278	-46.676373	-35.693615	-105.645233	-35.036697	-76.615799	-1.761115	-3.980721	-0.041065	-11.547516	-3.715723	0.634847	-42.680435	-16.154343	-49.836945	-24.196045	-120.583359	-40.094528	-11.885215	1.412187	11.540348	-4.182758	-0.350227	-18.226038	19.616398	-9.668526	-14.401903	
0.583947	98.669441	-3.399211	-3.593562	5.929342	46.504715	11.649020	-28.180031	19.854952	4.974936	28.920250	-3.213951	-10.840863	-4.742349	-7.295730	0.	0.	0.	-19.901688	-26.161480	-18.806614	-0.387503	28.247717	0.772617	7.876494	-4.277799	-6.855405	0.	0.	0.	-3.505656	-7.891456	-46.638336	-27.545534	19.962168	57.741150	17.175297	-4.917735	4.978980	-35.689278	-46.676373	-35.693615	-105.648125	-35.051731	-76.618065	-1.776369	-3.972240	-0.023559	-11.547516	-3.715723	0.634847	-42.668629	-16.139097	-49.833763	-24.210724	-120.583313	-40.108723	-11.860314	1.396616	11.537403	-4.176165	-0.321264	-18.217529	19.630560	-9.681643	-14.401760	
0.592105	98.666650	-3.394381	-3.593562	5.929342	46.504715	11.648693	-28.186365	19.855734	4.989731	28.941708	-3.219362	-10.850500	-4.757955	-7.300607	0.	0.	0.	-19.909874	-26.160181	-18.810076	-0.379645	28.260506	0.775162	7.875881	-4.289730	-6.856692	0.	0.	0.	-3.505656	-7.891456	-46.638336	-27.545534	19.962168	57.741150	17.175297	-4.917735	4.978980	-35.689278	-46.676373	-35.693615	-105.650864	-35.065994	-76.620216	-1.791057	-3.963723	-0.004021	-11.547516	-3.715723	0.634847	-42.668449	-16.131857	-49.834148	-24.217640	-120.579834	-40.119320	-11.850133	1.388250	11.540689	-4.173082	-0.307715	-18.213549	19.632023	-9.696001	-14.400832	
0.610275	98.655634	-3.384866	-3.593562	5.929342	46.504715	11.648361	-28.192812	19.856543	4.997711	28.968100	-3.220865	-10.853977	-4.777854	-7.306954	0.	0.	0.	-19.935291	-26.169016	-18.823034	-0.360748	28.311844	0.785663	7.874082	-4.326233	-6.860676	0.	0.	0.	-3.505656	-7.891456	-46.638336	-27.545534	19.962168	57.741150	17.175297	-4.917735	4.978980	-35.685295	-46.674572	-35.690250	-105.655273	-35.071316	-76.624664	-1.797892	-3.959684	0.005564	-11.547516	-3.715723	0.634847	-42.667007	-16.090252	-49.836262	-24.199383	-120.591270	-40.127026	-11.820650	1.375978	11.497990	-4.166035	-0.276716	-18.204445	19.635376	-9.728855	-14.398708	
0.623312	98.644326	-3.381160	-3.593562	5.929342	46.504715	11.647882	-28.202168	19.857710	5.011911	29.017778	-3.235679	-10.859913	-4.820158	-7.307136	0.	0.	0.	-19.949978	-26.186926	-18.832701	-0.364938	28.363457	0.802897	7.881293	-4.357736	-6.865563	0.	0.	0.	-3.505656	-7.891456	-46.638336	-27.545534	19.962168	57.741150	17.175297	-4.917735	4.978980	-35.660374	-46.663303	-35.669159	-105.675575	-35.066521	-76.646675	-1.802834	-3.954207	0.031739	-11.547516	-3.715723	0.634847	-42.656841	-16.060106	-49.834553	-24.198616	-120.598671	-40.137360	-11.782160	1.345922	11.451220	-4.164701	-0.270882	-18.202736	19.636522	-9.728856	-14.396700	
0.631377	98.637369	-3.380363	-3.593562	5.929342	46.504715	11.647240	-28.214693	19.859272	5.023947	29.054560	-3.238678	-10.864079	-4.844764	-7.314973	0.	0.	0.	-19.952660	-26.200251	-18.836199	-0.381169	28.394205	0.818170	7.892104	-4.375981	-6.869523	0.	0.	0.	-3.505656	-7.891456	-46.638336	-27.545534	19.962168	57.741150	17.175297	-4.917735	4.978980	-35.656406	-46.661507	-35.665802	-105.678711	-35.065250	-76.650108	-1.804748	-3.950085	0.057158	-11.547516	-3.715723	0.634847	-42.646461	-16.045433	-49.821491	-24.176197	-120.609421	-40.113815	-11.743484	1.327768	11.434251	-4.159036	-0.246036	-18.195446	19.643154	-9.734265	-14.391036	
